<?xml version="1.0" encoding="UTF-8"?>
<svg id="Layer_2" xmlns="http://www.w3.org/2000/svg" viewBox="0 0 791.86 215.15">
  <g id="Layer_1-2" data-name="Layer_1">
    <g>
      <path d="M414.53,63.14c-.1,21.85-18.29,43.01-48.39,48.64-17.32,3.24-34.51,2.92-51.19-2.99-21.02-7.45-33.93-21.93-35.39-44.83-1.37-21.5,5.51-39.81,24.57-51.2,25.37-15.16,52.57-16.52,79.59-5.36,20.69,8.54,31.25,25.11,30.82,55.74ZM348.76,24.73c-19.55-.04-33.39,13.97-33.45,33.86-.05,18.56,12.36,30.98,31.02,31.01,18.88.03,32.75-14.16,32.76-33.53.01-18.37-12.5-31.31-30.32-31.34Z"/>
      <path d="M791.65,58.76c-.05,26.02-18.09,47.12-48.04,52.95-16.45,3.2-32.84,3.01-48.85-2.01-19.81-6.21-34.04-18.38-37.34-39.9-3.71-24.13,2.95-44.79,24.76-57.59,25.1-14.74,52.09-15.87,78.73-4.77,20.66,8.61,31.2,25.18,30.75,51.34ZM725.58,24.71c-18.9-.11-33.04,14-33.19,33.13-.15,19.11,11.97,31.63,30.77,31.78,18.87.15,32.8-13.9,33.01-33.3.21-18.54-12.33-31.51-30.59-31.61Z"/>
      <path d="M142.93,111.52h-36.99c-2.92-8.48-6.08-16.7-8.51-25.13-1.37-4.77-3.82-5.97-8.49-5.82-10.49.35-20.99.22-31.49.04-2.92-.05-4.5.89-5.7,3.53-3.72,8.18-7.58,16.3-11.6,24.33-.68,1.35-2.41,3.07-3.68,3.1-11.93.24-23.87.14-36.48.14,4.91-8.83,9.56-17.02,14.06-25.3C28.67,59.49,43.2,32.53,57.9,5.66c.76-1.39,2.85-2.89,4.34-2.91,13.15-.23,26.31-.13,39.48-.13,13.76,36.36,27.44,72.52,41.21,108.91ZM63.81,57.49h25.3c-3.4-10.2-6.7-20.07-10.31-30.9-5.23,10.78-9.97,20.54-14.99,30.9Z"/>
      <path d="M203.21,47.89c5.19-.45,10.05-.33,14.63-1.41,6.19-1.46,9.91-7.46,9.09-13.18-.8-5.61-4.85-8.47-12.13-8.58-.67,0-1.33-.02-2,0-14.89.45-12.76-2.28-13.39,13.48-.97,24.28-1.67,48.56-2.5,73.19h-32.3c1.62-36.1,3.23-72.22,4.88-109.01,13.78,0,27.74,0,41.7,0,5.83,0,11.66-.02,17.49,0,30.77.14,37.22,27.92,28.98,46.54-6.88,15.54-20.37,20.71-35.97,21.66-12.91.79-12.91.46-15.77-12.03-.81-3.55-1.79-7.07-2.71-10.67Z"/>
      <path d="M446.17,2.84h35.48c-1.58,28.25-3.15,56.26-4.75,84.64h51.48c-.62,8.21-1.21,16.05-1.8,24.02h-86.87c2.15-36.21,4.29-72.22,6.45-108.66Z"/>
      <path d="M590.68,2.87c-1.59,28.22-3.16,56.13-4.75,84.53h51.52c-.65,8.35-1.25,16.18-1.87,24.14h-86.85c2.16-36.18,4.31-72.29,6.47-108.68h35.48Z"/>
      <path d="M787.5,213.82c-9.04,0-17.85.13-26.66-.14-1.3-.04-2.95-1.72-3.75-3.05-8.83-14.67-17.52-29.43-27.31-44.13-.57,15.61-1.13,31.22-1.71,47.06h-22.33c1.38-25.51,2.75-50.75,4.16-76.79,8.98,0,18.41-.11,27.82.15,1.12.03,2.48,1.89,3.22,3.19,7.97,14.05,15.84,28.16,23.75,42.25.62,1.1,1.32,2.16,2.96,3.05.67-16.05,1.33-32.1,2.01-48.4h22.18c-1.45,25.49-2.89,50.96-4.36,76.81Z"/>
      <path d="M168.32,197.16c5.21-.76,9.37-1.37,13.93-2.03-.62,2.94-1.22,5.63-1.75,8.34-.51,2.6-.95,5.21-1.54,8.45-21.4,1.9-42.85,5.29-64.39.84-16.26-3.36-27.82-15.44-29.52-29.98-2.22-18.97,5.11-33.52,21.53-41.07,18.07-8.31,36.64-8.85,54.45.28,20.76,10.65,24.65,36.83,9.43,52.38-.54.56-.96,1.23-2.15,2.78ZM131.12,197.71c13.91.01,23.65-9.79,23.47-23.61-.17-12.69-8.81-21.23-21.49-21.26-13.91-.03-24.2,10.05-24.23,23.72-.03,12.32,9.25,21.14,22.25,21.15Z"/>
      <path d="M637.44,135.48c17.13.61,28.88,3.01,38.97,11.33,18.26,15.05,15.88,53.28-13.25,63.91-15.01,5.48-30.3,5.69-45.48.69-15.05-4.95-24.15-16.79-24.86-31.59-.87-18.26,6.72-32.02,22.66-38.44,8.33-3.35,17.45-4.73,21.96-5.9ZM641.18,152.86c-13.65.02-23.16,9.78-23.23,23.83-.07,12.5,8.9,21.02,22.13,21.04,13.05.02,22.56-9.73,22.7-23.28.13-12.71-8.77-21.61-21.6-21.59Z"/>
      <path d="M403.88,213.24c1.22-25.28,2.45-50.62,3.68-76.05,16.92,0,33.91-1.02,50.72.3,15.25,1.2,23.11,9.88,26.54,24.91,3.83,16.74-2.49,35.58-14.8,44.43-6.03,4.34-12.87,6.27-20.12,6.35-15.42.19-30.84.06-46.03.06ZM430.38,153.54c-.69,14.85-1.34,28.77-2.02,43.51,5.6-.37,10.72-.45,15.77-1.09,7.57-.95,12.69-5.6,14.48-12.7,1.39-5.5,1.87-11.54,1.23-17.17-.75-6.52-4.83-11.62-11.84-12.43-5.67-.65-11.47-.13-17.61-.13Z"/>
      <path d="M202.8,137.01h24.77c-.54,8.12-1.21,16.15-1.57,24.2-.38,8.3-.8,16.61-.59,24.9.18,6.81,3.47,10.16,9.72,11.41,7.05,1.4,13.4-.8,15.73-6.57,1.82-4.52,2.76-9.58,3.16-14.47,1.02-12.44,1.52-24.93,2.24-37.4.04-.63.19-1.25.32-2.06h25.5c-1.18,17.69-2.46,35.09-3.47,52.51-.6,10.33-5.79,17.42-15.16,20.86-17.16,6.29-34.54,6.65-51.52-.73-9.52-4.14-13.18-11.73-12.39-22.21,1.25-16.59,2.18-33.21,3.28-50.44Z"/>
      <path d="M507.43,137.46c17.33,0,34.49-.68,51.56.25,10.82.58,17.3,7.42,18.37,15.96,1.39,11.05-3,19.1-13.06,23.97-1.48.72-2.99,1.39-5.17,2.4,5.05,11.09,10.05,22.05,15.39,33.77-8.56,0-16.6.07-24.63-.1-.9-.02-2.25-1.26-2.59-2.22-4.84-13.62-9.55-27.28-14.14-40.52,4.12-.42,8.62-.33,12.81-1.43,5.47-1.43,8.05-5.89,7.37-10.94-.54-3.99-3.96-6.45-9.79-6.68-4.31-.17-8.63-.03-13.81-.03-.71,20.64-1.41,41.01-2.12,61.66h-23.68c1.17-25.51,2.33-50.86,3.49-76.08Z"/>
      <path d="M389.16,213.61h-25.61c-2.47-6.81-4.95-13.67-7.53-20.79-9.09,0-18.07-.1-27.04.12-1.24.03-2.93,1.36-3.58,2.54-2.8,5.09-5.19,10.41-7.98,15.51-.66,1.21-2.24,2.67-3.43,2.7-8.1.24-16.21.12-25,.12,5.64-10.31,10.99-19.99,16.25-29.72,7.91-14.63,15.84-29.25,23.56-43.98,1.36-2.59,2.83-3.51,5.69-3.44,7.65.2,15.32-.08,22.97.2,1.47.05,3.67,1.5,4.19,2.82,9.29,24.03,18.37,48.15,27.47,72.25.16.42.02.96.02,1.66ZM344.4,153.74c-3.86,8.03-7.07,14.69-10.46,21.73h17.7c-2.37-7.13-4.6-13.81-7.24-21.73Z"/>
      <path d="M11.44,212.83c-.51-6.45-1-12.54-1.53-19.27,4.8,1.27,8.98,2.74,13.28,3.42,3.9.61,7.99.83,11.88.3,2.11-.29,5.11-2.15,5.61-3.9.5-1.75-1.13-4.74-2.71-6.31-3.64-3.64-7.83-6.72-11.75-10.07-2.53-2.16-5.19-4.23-7.45-6.65-9.31-9.98-6.84-24.29,5.26-30.68,8.14-4.3,17.01-4.26,25.84-3.76,4.77.27,9.5,1.15,14.49,1.78.56,6.37,1.07,12.31,1.57,18.01-5.98-.95-11.88-2.01-17.82-2.75-1.72-.21-3.66.27-5.34.87-4.96,1.77-6.01,4.89-2.4,8.62,3.56,3.68,7.88,6.63,11.82,9.95,2.8,2.36,5.72,4.62,8.24,7.25,9.25,9.66,7.66,23.53-4.11,30-5.2,2.86-11.55,3.82-17.5,5.06-3.19.67-6.66.31-9.97.04-5.76-.47-11.51-1.24-17.4-1.9Z"/>
    </g>
  </g>
</svg>