<?xml version="1.0" encoding="UTF-8"?>
<svg id="Layer_2" xmlns="http://www.w3.org/2000/svg" viewBox="0 0 709.03 796">
  <defs>
    <style>
      .cls-1 {
        fill: #ffba49;
      }

      .cls-2 {
        fill: #d9e900;
      }
    </style>
  </defs>
  <g id="Layer_1-2" data-name="Layer_1">
    <g>
      <g>
        <g>
          <path class="cls-2" d="M232.28,341.64l-200.73,38.8c-2.43.47-4.22,3.1-4.24,6.2l-.28,53.26c-.02,2.97,1.61,5.56,3.91,6.21l201.01,56.61c3.12.88,6.08-2.12,6.08-6.16v-148.67c0-3.87-2.73-6.83-5.75-6.24Z"/>
          <rect class="cls-2" width="55" height="796" rx="14.29" ry="14.29"/>
          <polygon class="cls-2" points="55 322.42 126.64 402 55 490.86 55 322.42"/>
          <rect class="cls-2" y="280" width="71" height="245" rx="21.48" ry="21.48"/>
        </g>
        <g>
          <path class="cls-2" d="M467.05,341.64l210.21,38.8c2.54.47,4.42,3.1,4.44,6.2l.29,53.26c.02,2.97-1.69,5.56-4.09,6.21l-210.5,56.61c-3.27.88-6.37-2.12-6.37-6.16v-148.67c0-3.87,2.86-6.83,6.02-6.24Z"/>
          <rect class="cls-2" x="654.03" width="55" height="796" rx="14.29" ry="14.29"/>
          <polygon class="cls-2" points="654.03 322.42 582.39 402 654.03 490.86 654.03 322.42"/>
          <rect class="cls-2" x="638.03" y="280" width="71" height="245" rx="21.48" ry="21.48"/>
        </g>
        <path class="cls-2" d="M352.1,270.52c-90.57,0-164,73.43-164,164s73.43,164,164,164,164-73.43,164-164-73.43-164-164-164ZM364.39,351.82c22.43,3.32,41.99,15.58,54.92,33.04l-35.53,19.01c-5.28-5.45-11.92-9.56-19.39-11.77v-40.28ZM339.8,351.82v40.04c-6.17,1.7-11.8,4.68-16.59,8.65l-33-22.15c12.7-13.98,30.06-23.65,49.59-26.54ZM268.49,434.52c0-12.77,2.89-24.88,8.03-35.72l32.78,22c-1.48,4.44-2.29,9.19-2.29,14.13s.88,10.05,2.47,14.63l-31.87,22.85c-5.82-11.39-9.12-24.26-9.12-37.9ZM339.8,517.21c-18.7-2.77-35.38-11.76-47.91-24.78l31.74-22.76c4.7,3.8,10.19,6.66,16.18,8.31v39.22ZM351.69,463.2c-15.59,0-28.28-12.69-28.28-28.28s12.69-28.28,28.28-28.28,28.28,12.69,28.28,28.28-12.69,28.28-28.28,28.28ZM364.39,517.21v-39.46c5.61-1.66,10.76-4.4,15.22-7.97l32.43,22.93c-12.5,12.87-29.08,21.75-47.65,24.5ZM426.41,472.76l-32.57-23.03c1.63-4.63,2.52-9.61,2.52-14.81,0-3.21-.35-6.35-.99-9.37l35.51-19c3.11,8.75,4.82,18.15,4.82,27.96,0,13.78-3.37,26.77-9.3,38.24Z"/>
      </g>
      <g>
        <g>
          <path class="cls-1" d="M232.28,341.64l-200.73,38.8c-2.43.47-4.22,3.1-4.24,6.2l-.28,53.26c-.02,2.97,1.61,5.56,3.91,6.21l201.01,56.61c3.12.88,6.08-2.12,6.08-6.16v-148.67c0-3.87-2.73-6.83-5.75-6.24Z"/>
          <rect class="cls-1" width="55" height="796" rx="14.29" ry="14.29"/>
          <polygon class="cls-1" points="55 322.42 126.64 402 55 490.86 55 322.42"/>
          <rect class="cls-1" y="280" width="71" height="245" rx="21.48" ry="21.48"/>
        </g>
        <g>
          <path class="cls-1" d="M467.05,341.64l210.21,38.8c2.54.47,4.42,3.1,4.44,6.2l.29,53.26c.02,2.97-1.69,5.56-4.09,6.21l-210.5,56.61c-3.27.88-6.37-2.12-6.37-6.16v-148.67c0-3.87,2.86-6.83,6.02-6.24Z"/>
          <rect class="cls-1" x="654.03" width="55" height="796" rx="14.29" ry="14.29"/>
          <polygon class="cls-1" points="654.03 322.42 582.39 402 654.03 490.86 654.03 322.42"/>
          <rect class="cls-1" x="638.03" y="280" width="71" height="245" rx="21.48" ry="21.48"/>
        </g>
        <path class="cls-1" d="M352.1,270.52c-90.57,0-164,73.43-164,164s73.43,164,164,164,164-73.43,164-164-73.43-164-164-164ZM364.39,351.82c22.43,3.32,41.99,15.58,54.92,33.04l-35.53,19.01c-5.28-5.45-11.92-9.56-19.39-11.77v-40.28ZM339.8,351.82v40.04c-6.17,1.7-11.8,4.68-16.59,8.65l-33-22.15c12.7-13.98,30.06-23.65,49.59-26.54ZM268.49,434.52c0-12.77,2.89-24.88,8.03-35.72l32.78,22c-1.48,4.44-2.29,9.19-2.29,14.13s.88,10.05,2.47,14.63l-31.87,22.85c-5.82-11.39-9.12-24.26-9.12-37.9ZM339.8,517.21c-18.7-2.77-35.38-11.76-47.91-24.78l31.74-22.76c4.7,3.8,10.19,6.66,16.18,8.31v39.22ZM351.69,463.2c-15.59,0-28.28-12.69-28.28-28.28s12.69-28.28,28.28-28.28,28.28,12.69,28.28,28.28-12.69,28.28-28.28,28.28ZM364.39,517.21v-39.46c5.61-1.66,10.76-4.4,15.22-7.97l32.43,22.93c-12.5,12.87-29.08,21.75-47.65,24.5ZM426.41,472.76l-32.57-23.03c1.63-4.63,2.52-9.61,2.52-14.81,0-3.21-.35-6.35-.99-9.37l35.51-19c3.11,8.75,4.82,18.15,4.82,27.96,0,13.78-3.37,26.77-9.3,38.24Z"/>
      </g>
    </g>
  </g>
</svg>