<?xml version="1.0" encoding="UTF-8"?>
<svg id="Layer_2" xmlns="http://www.w3.org/2000/svg" viewBox="0 0 709.03 796">
  <g id="Layer_1-2" data-name="Layer_1">
    <g>
      <g>
        <path d="M232.28,341.64l-200.73,38.8c-2.43.47-4.22,3.1-4.24,6.2l-.28,53.26c-.02,2.97,1.61,5.56,3.91,6.21l201.01,56.61c3.12.88,6.08-2.12,6.08-6.16v-148.67c0-3.87-2.73-6.83-5.75-6.24Z"/>
        <rect width="55" height="796" rx="14.29" ry="14.29" transform="translate(55 796) rotate(180)"/>
        <polygon points="55 322.42 126.64 402 55 490.86 55 322.42"/>
        <rect y="280" width="71" height="245" rx="21.48" ry="21.48" transform="translate(71 805) rotate(180)"/>
      </g>
      <g>
        <path d="M467.05,341.64l210.21,38.8c2.54.47,4.42,3.1,4.44,6.2l.29,53.26c.02,2.97-1.69,5.56-4.09,6.21l-210.5,56.61c-3.27.88-6.37-2.12-6.37-6.16v-148.67c0-3.87,2.86-6.83,6.02-6.24Z"/>
        <rect x="654.03" width="55" height="796" rx="14.29" ry="14.29"/>
        <polygon points="654.03 322.42 582.39 402 654.03 490.86 654.03 322.42"/>
        <rect x="638.03" y="280" width="71" height="245" rx="21.48" ry="21.48"/>
      </g>
      <g>
        <path d="M374.9,415.41c0-15.59-12.69-28.28-28.28-28.28s-28.28,12.69-28.28,28.28,12.69,28.28,28.28,28.28,28.28-12.69,28.28-28.28Z"/>
        <path d="M301.95,415.41c0-4.94.81-9.69,2.29-14.13l-32.78-22c-5.14,10.84-8.03,22.95-8.03,35.72,0,13.64,3.3,26.51,9.12,37.9l31.87-22.85c-1.59-4.59-2.47-9.51-2.47-14.63Z"/>
        <path d="M359.33,372.58c7.47,2.21,14.11,6.32,19.39,11.77l35.53-19.01c-12.93-17.46-32.49-29.72-54.92-33.04v40.28Z"/>
        <path d="M391.29,415.41c0,5.19-.9,10.17-2.52,14.81l32.57,23.03c5.93-11.47,9.3-24.47,9.3-38.24,0-9.8-1.71-19.21-4.82-27.96l-35.51,19c.64,3.02.99,6.15.99,9.37Z"/>
        <path d="M318.14,380.99c4.79-3.97,10.43-6.95,16.59-8.64v-40.04c-19.54,2.89-36.9,12.56-49.59,26.54l33,22.15Z"/>
        <path d="M334.74,458.47c-5.99-1.65-11.48-4.51-16.18-8.31l-31.74,22.76c12.53,13.02,29.22,22.01,47.91,24.78v-39.22Z"/>
        <path d="M374.54,450.27c-4.45,3.57-9.6,6.3-15.22,7.97v39.46c18.56-2.75,35.15-11.63,47.65-24.5l-32.43-22.93Z"/>
        <path d="M347.03,251c-90.57,0-164,73.43-164,164s73.43,164,164,164,164-73.43,164-164-73.43-164-164-164ZM347.03,515c-55.23,0-100-44.77-100-100s44.77-100,100-100,100,44.77,100,100-44.77,100-100,100Z"/>
      </g>
    </g>
  </g>
</svg>